# Blender 4.5.1 LTS
# www.blender.org
mtllib ipad.mtl
o iPad_Mini_6
v -0.070297 -0.086204 0.002602
v -0.058972 -0.097529 0.002602
v -0.069911 -0.089135 0.002602
v -0.068780 -0.091866 0.002602
v -0.066980 -0.094212 0.002602
v -0.064634 -0.096012 0.002602
v -0.061903 -0.097143 0.002602
v -0.058972 0.101792 0.002602
v -0.070297 0.090467 0.002602
v -0.061903 0.101407 0.002602
v -0.064634 0.100275 0.002602
v -0.066980 0.098475 0.002602
v -0.068780 0.096130 0.002602
v -0.069911 0.093399 0.002602
v -0.058972 -0.097529 -0.003622
v -0.070297 -0.086204 -0.003622
v -0.061903 -0.097143 -0.003622
v -0.064634 -0.096012 -0.003622
v -0.066980 -0.094212 -0.003622
v -0.068780 -0.091866 -0.003622
v -0.069911 -0.089135 -0.003622
v -0.070297 0.090467 -0.003622
v -0.058972 0.101792 -0.003622
v -0.069911 0.093399 -0.003622
v -0.068780 0.096130 -0.003622
v -0.066980 0.098475 -0.003622
v -0.064634 0.100275 -0.003622
v -0.061903 0.101407 -0.003622
v 0.058972 -0.097529 0.002602
v 0.070297 -0.086204 0.002602
v 0.061903 -0.097143 0.002602
v 0.064634 -0.096012 0.002602
v 0.066980 -0.094212 0.002602
v 0.068780 -0.091866 0.002602
v 0.069911 -0.089135 0.002602
v 0.070297 0.090467 0.002602
v 0.058972 0.101792 0.002602
v 0.069911 0.093399 0.002602
v 0.068780 0.096130 0.002602
v 0.066980 0.098475 0.002602
v 0.064634 0.100275 0.002602
v 0.061903 0.101407 0.002602
v 0.070297 -0.086204 -0.003622
v 0.058972 -0.097529 -0.003622
v 0.069911 -0.089135 -0.003622
v 0.068780 -0.091866 -0.003622
v 0.066980 -0.094212 -0.003622
v 0.064634 -0.096012 -0.003622
v 0.061903 -0.097143 -0.003622
v 0.058972 0.101792 -0.003622
v 0.070297 0.090467 -0.003622
v 0.061903 0.101407 -0.003622
v 0.064634 0.100275 -0.003622
v 0.066980 0.098475 -0.003622
v 0.068780 0.096130 -0.003622
v 0.069911 0.093399 -0.003622
v -0.064157 0.092342 0.002602
v -0.052546 0.091198 0.002602
v -0.064504 0.091198 0.002602
v -0.052546 0.088820 0.002602
v -0.064504 0.088820 0.002602
v -0.053456 0.086622 0.002602
v -0.054214 0.085698 0.002602
v -0.055138 0.084940 0.002602
v -0.056192 0.084377 0.002602
v -0.057336 0.084030 0.002602
v -0.058525 0.083913 0.002602
v -0.059714 0.084030 0.002602
v -0.060858 0.084377 0.002602
v -0.061912 0.084940 0.002602
v -0.062835 0.085698 0.002602
v -0.064157 0.087676 0.002602
v -0.063594 0.086622 0.002602
v -0.058525 0.096105 0.002602
v -0.058525 0.096105 0.003632
v -0.057336 0.095988 0.002602
v -0.057336 0.095988 0.003632
v -0.056192 0.095641 0.002602
v -0.056192 0.095641 0.003632
v -0.055138 0.095078 0.002602
v -0.055138 0.095078 0.003632
v -0.054214 0.094319 0.002602
v -0.054214 0.094319 0.003632
v -0.053456 0.093396 0.002602
v -0.053456 0.093396 0.003632
v -0.052893 0.092342 0.002602
v -0.052893 0.092342 0.003632
v -0.052546 0.091198 0.003632
v -0.052429 0.090009 0.002602
v -0.052429 0.090009 0.003632
v -0.052546 0.088820 0.003632
v -0.052893 0.087676 0.002602
v -0.052893 0.087676 0.003632
v -0.053456 0.086622 0.003632
v -0.054214 0.085698 0.003632
v -0.055138 0.084940 0.003632
v -0.056192 0.084377 0.003632
v -0.057336 0.084030 0.003632
v -0.058525 0.083913 0.003632
v -0.059714 0.084030 0.003632
v -0.060858 0.084377 0.003632
v -0.061912 0.084940 0.003632
v -0.062835 0.085698 0.003632
v -0.063594 0.086622 0.003632
v -0.064157 0.087676 0.003632
v -0.064504 0.088820 0.003632
v -0.064621 0.090009 0.002602
v -0.064621 0.090009 0.003632
v -0.064504 0.091198 0.003632
v -0.064157 0.092342 0.003632
v -0.063594 0.093396 0.002602
v -0.063594 0.093396 0.003632
v -0.062835 0.094319 0.002602
v -0.062835 0.094319 0.003632
v -0.061912 0.095078 0.002602
v -0.061912 0.095078 0.003632
v -0.060858 0.095641 0.002602
v -0.060858 0.095641 0.003632
v -0.059714 0.095988 0.002602
v -0.059714 0.095988 0.003632
vn -0.0000 -0.0000 1.0000
vn 1.0000 0.0021 -0.0000
vn 1.0000 -0.0021 -0.0000
vn -0.0032 1.0000 -0.0000
vn 0.0032 1.0000 -0.0000
vn -1.0000 0.0021 -0.0000
vn -1.0000 -0.0021 -0.0000
vn -0.0000 -0.0000 -1.0000
vn -0.0032 -1.0000 -0.0000
vn -0.2588 -0.9659 -0.0000
vn -0.5000 -0.8661 -0.0000
vn -0.7071 -0.7071 -0.0000
vn -0.8661 -0.5000 -0.0000
vn -0.9659 -0.2588 -0.0000
vn -0.2588 0.9659 -0.0000
vn -0.5001 0.8660 -0.0000
vn -0.7070 0.7072 -0.0000
vn -0.8660 0.5000 -0.0000
vn -0.9659 0.2588 -0.0000
vn 0.0032 -1.0000 -0.0000
vn 0.2588 -0.9659 -0.0000
vn 0.5000 -0.8661 -0.0000
vn 0.7071 -0.7071 -0.0000
vn 0.8661 -0.5000 -0.0000
vn 0.9659 -0.2588 -0.0000
vn 0.2588 0.9659 -0.0000
vn 0.5001 0.8660 -0.0000
vn 0.7070 0.7072 -0.0000
vn 0.8660 0.5000 -0.0000
vn 0.9659 0.2588 -0.0000
vn -0.0000 1.0000 -0.0000
vn 0.1950 0.9808 -0.0000
vn 0.3825 0.9239 -0.0000
vn 0.5556 0.8314 -0.0000
vn 0.7071 0.7071 -0.0000
vn 0.8315 0.5556 -0.0000
vn 0.9239 0.3825 -0.0000
vn 0.9808 0.1950 -0.0000
vn 1.0000 -0.0000 -0.0000
vn 0.9808 -0.1950 -0.0000
vn 0.9239 -0.3825 -0.0000
vn 0.8316 -0.5554 -0.0000
vn 0.5554 -0.8316 -0.0000
vn 0.3825 -0.9239 -0.0000
vn 0.3830 -0.9237 -0.0000
vn 0.1950 -0.9808 -0.0000
vn -0.0000 -1.0000 -0.0000
vn -0.1950 -0.9808 -0.0000
vn -0.3825 -0.9239 -0.0000
vn -0.3831 -0.9237 -0.0000
vn -0.5556 -0.8315 -0.0000
vn -0.8314 -0.5556 -0.0000
vn -0.9239 -0.3825 -0.0000
vn -0.9808 -0.1950 -0.0000
vn -1.0000 -0.0000 -0.0000
vn -0.9808 0.1950 -0.0000
vn -0.9239 0.3825 -0.0000
vn -0.8313 0.5559 -0.0000
vn -0.7071 0.7071 -0.0000
vn -0.5559 0.8313 -0.0000
vn -0.3831 0.9237 -0.0000
vn -0.3825 0.9239 -0.0000
vn -0.1950 0.9808 -0.0000
vt 0.387965 0.532040
vt 0.388356 0.528074
vt 0.955674 0.488816
vt 0.003041 0.041559
vt 0.044284 0.958441
vt 0.003041 0.958441
vt 0.126769 0.653657
vt 0.085526 0.041559
vt 0.126769 0.041559
vt 0.044284 0.041559
vt 0.085526 0.958441
vt 0.955674 0.009213
vt 0.974557 0.014273
vt 0.993441 0.046980
vt 0.168012 0.026348
vt 0.168012 0.041559
vt 0.126769 0.026348
vt 0.168012 0.012172
vt 0.126769 0.012172
vt 0.168012 0.000000
vt 0.044284 1.000000
vt 0.085526 0.987828
vt 0.085526 1.000000
vt 0.044284 0.973652
vt 0.085526 0.973652
vt 0.085527 0.668869
vt 0.085526 0.653657
vt 0.126769 0.668869
vt 0.085527 0.683044
vt 0.126769 0.683044
vt 0.085527 0.695217
vt 0.085526 0.000000
vt 0.044284 0.012172
vt 0.044284 0.000000
vt 0.085526 0.012172
vt 0.044284 0.026348
vt 0.085526 0.026348
vt 0.168012 0.653657
vt 0.168012 0.668869
vt 0.168012 0.683044
vt 0.126769 0.695217
vt 0.003041 1.000000
vt 0.044284 0.987828
vt 0.003041 0.973652
vt 0.126769 0.000000
vt 0.003041 0.012172
vt 0.003041 0.000000
vt 0.003041 0.026348
vt 0.330017 0.516809
vt 0.349245 0.520294
vt 0.348088 0.524108
vt 0.430085 0.995781
vt 0.401687 0.971304
vt 0.430085 0.971304
vt 0.401687 0.995781
vt 0.373290 0.971304
vt 0.344892 0.995781
vt 0.344893 0.971304
vt 0.316495 0.995780
vt 0.316495 0.971304
vt 0.288098 0.971304
vt 0.259700 0.995780
vt 0.259700 0.971304
vt 0.231303 0.971304
vt 0.202905 0.995780
vt 0.202905 0.971304
vt 0.174508 0.971303
vt 0.146110 0.995780
vt 0.146110 0.971303
vt 0.117712 0.995780
vt 0.117712 0.971303
vt 0.089315 0.995780
vt 0.089315 0.971303
vt 0.998035 0.971308
vt 0.969638 0.995784
vt 0.969638 0.971307
vt 0.941240 0.995783
vt 0.941240 0.971307
vt 0.912842 0.995783
vt 0.912843 0.971307
vt 0.884445 0.995783
vt 0.884445 0.971306
vt 0.856047 0.971306
vt 0.856047 0.995782
vt 0.827650 0.971306
vt 0.827650 0.995782
vt 0.799253 0.971305
vt 0.799252 0.995782
vt 0.770855 0.971305
vt 0.770855 0.995782
vt 0.742458 0.971305
vt 0.742458 0.995782
vt 0.714060 0.971305
vt 0.714060 0.995782
vt 0.685662 0.971305
vt 0.657265 0.995781
vt 0.657265 0.971305
vt 0.628867 0.971305
vt 0.600470 0.995781
vt 0.600469 0.971305
vt 0.572073 0.995781
vt 0.572073 0.971305
vt 0.543675 0.971305
vt 0.543675 0.995781
vt 0.515278 0.971305
vt 0.515278 0.995781
vt 0.486880 0.971304
vt 0.486880 0.995781
vt 0.458482 0.971304
vt 0.458483 0.995781
vt 0.241078 0.720521
vt 0.317661 0.863797
vt 0.174385 0.940379
vt 0.993441 0.526584
vt 0.993441 0.919910
vt 0.992154 0.929685
vt 0.982379 0.946615
vt 0.988381 0.938794
vt 0.974557 0.952617
vt 0.965448 0.956390
vt 0.955674 0.957677
vt 0.366497 0.957677
vt 0.384930 0.539368
vt 0.379321 0.544977
vt 0.375806 0.546856
vt 0.368027 0.548403
vt 0.371993 0.548012
vt 0.382402 0.542449
vt 0.988381 0.507700
vt 0.992154 0.516809
vt 0.974557 0.493876
vt 0.982379 0.499878
vt 0.965448 0.490103
vt 0.368027 0.507744
vt 0.366497 0.488816
vt 0.371993 0.508135
vt 0.384930 0.516779
vt 0.375806 0.509292
vt 0.379321 0.511170
vt 0.382402 0.513699
vt 0.386809 0.535853
vt 0.386809 0.520294
vt 0.387965 0.524108
vt 0.993441 0.440306
vt 0.955674 0.478074
vt 0.992154 0.450081
vt 0.965448 0.476787
vt 0.988381 0.459190
vt 0.982379 0.467012
vt 0.974557 0.473014
vt 0.366497 0.478074
vt 0.356723 0.476787
vt 0.347614 0.473014
vt 0.339792 0.467012
vt 0.333790 0.459190
vt 0.330017 0.450081
vt 0.328730 0.440306
vt 0.328730 0.046980
vt 0.366497 0.009213
vt 0.330017 0.037205
vt 0.333790 0.028097
vt 0.339792 0.020275
vt 0.347614 0.014273
vt 0.356723 0.010500
vt 0.965448 0.010500
vt 0.982379 0.020275
vt 0.988381 0.028097
vt 0.992154 0.037205
vt 0.168012 0.695217
vt 0.003041 0.987828
vt 0.356723 0.490103
vt 0.364061 0.508135
vt 0.339792 0.499878
vt 0.347614 0.493876
vt 0.356732 0.511170
vt 0.360247 0.509292
vt 0.333790 0.507700
vt 0.351123 0.516779
vt 0.353652 0.513699
vt 0.328730 0.919910
vt 0.328730 0.526584
vt 0.356732 0.544977
vt 0.353652 0.542449
vt 0.351123 0.539368
vt 0.333790 0.938794
vt 0.330017 0.929685
vt 0.347614 0.952617
vt 0.339792 0.946615
vt 0.356723 0.956390
vt 0.364061 0.548012
vt 0.360247 0.546856
vt 0.349245 0.535853
vt 0.348088 0.532040
vt 0.347697 0.528074
vt 0.373290 0.995781
vt 0.288098 0.995780
vt 0.231303 0.995780
vt 0.174507 0.995780
vt 0.998034 0.995784
vt 0.685662 0.995782
vt 0.628867 0.995781
vt 0.261883 0.729139
vt 0.280608 0.741650
vt 0.296532 0.757574
vt 0.309043 0.776298
vt 0.317661 0.797104
vt 0.322054 0.819191
vt 0.322054 0.841710
vt 0.309043 0.884602
vt 0.296532 0.903326
vt 0.280608 0.919250
vt 0.261883 0.931762
vt 0.241078 0.940380
vt 0.218991 0.944772
vt 0.196472 0.944773
vt 0.153580 0.931762
vt 0.134855 0.919250
vt 0.118932 0.903327
vt 0.106420 0.884602
vt 0.097802 0.863797
vt 0.093409 0.841710
vt 0.093409 0.819191
vt 0.097803 0.797104
vt 0.106420 0.776298
vt 0.118932 0.757574
vt 0.134855 0.741650
vt 0.153580 0.729139
vt 0.174385 0.720521
vt 0.196472 0.716128
vt 0.218991 0.716128
s 1
usemtl Material.001
f 66/1/1 67/2/1 1/3/1
f 51/4/2 30/5/3 43/6/3
f 23/7/4 37/8/5 50/9/5
f 9/10/6 16/11/7 1/5/7
f 43/12/8 46/13/8 44/14/8
f 2/9/9 17/15/10 15/16/9
f 7/17/10 18/18/11 17/15/10
f 6/19/11 19/20/12 18/18/11
f 5/21/12 20/22/13 19/23/12
f 20/22/13 3/24/14 21/25/14
f 21/25/14 1/5/7 16/11/7
f 23/7/4 10/26/15 8/27/4
f 28/28/15 11/29/16 10/26/15
f 27/30/16 12/31/17 11/29/16
f 26/32/17 13/33/18 12/34/17
f 25/35/18 14/36/19 13/33/18
f 24/37/19 9/10/6 14/36/19
f 44/38/20 31/28/21 29/7/20
f 49/39/21 32/30/22 31/28/21
f 48/40/22 33/41/23 32/30/22
f 47/42/23 34/43/24 33/21/23
f 34/43/24 45/44/25 35/24/25
f 35/24/25 43/6/3 30/5/3
f 37/8/5 52/17/26 50/9/5
f 42/37/26 53/19/27 52/17/26
f 41/35/27 54/45/28 53/19/27
f 40/34/28 55/46/29 54/47/28
f 39/33/29 56/48/30 55/46/29
f 38/36/30 51/4/2 56/48/30
f 44/38/20 2/9/9 15/16/9
f 10/49/1 117/50/1 119/51/1
f 75/52/31 76/53/32 74/54/31
f 77/55/32 78/56/33 76/53/32
f 78/56/33 81/57/34 80/58/34
f 80/58/34 83/59/35 82/60/35
f 83/59/35 84/61/36 82/60/35
f 84/61/36 87/62/37 86/63/37
f 87/62/37 58/64/38 86/63/37
f 58/64/38 90/65/39 89/66/39
f 90/65/39 60/67/40 89/66/39
f 60/67/40 93/68/41 92/69/41
f 92/69/41 94/70/42 62/71/42
f 62/71/42 95/72/23 63/73/23
f 63/74/23 96/75/43 64/76/43
f 64/76/43 97/77/44 65/78/45
f 65/78/45 98/79/46 66/80/46
f 66/80/46 99/81/47 67/82/47
f 99/81/47 68/83/48 67/82/47
f 100/84/48 69/85/49 68/83/48
f 101/86/50 70/87/51 69/85/49
f 102/88/51 71/89/12 70/87/51
f 103/90/12 73/91/52 71/89/12
f 104/92/52 72/93/53 73/91/52
f 105/94/53 61/95/54 72/93/53
f 61/95/54 108/96/55 107/97/55
f 108/96/55 59/98/56 107/97/55
f 59/98/56 110/99/57 57/100/57
f 57/100/57 112/101/58 111/102/58
f 112/101/58 113/103/59 111/102/58
f 114/104/59 115/105/60 113/103/59
f 116/106/60 117/107/61 115/105/60
f 118/108/62 119/109/63 117/107/61
f 120/110/63 74/54/31 119/109/63
f 77/111/1 109/112/1 100/113/1
f 2/114/1 29/115/1 1/3/1
f 29/115/1 31/116/1 33/117/1
f 31/116/1 32/118/1 33/117/1
f 33/117/1 34/119/1 35/120/1
f 35/120/1 30/121/1 33/117/1
f 30/121/1 36/122/1 64/123/1
f 62/124/1 36/122/1 92/125/1
f 36/122/1 89/126/1 60/127/1
f 36/122/1 60/127/1 92/125/1
f 36/122/1 62/124/1 63/128/1
f 33/117/1 30/121/1 29/115/1
f 1/3/1 29/115/1 30/121/1
f 6/129/1 7/130/1 2/114/1
f 4/131/1 5/132/1 1/3/1
f 5/132/1 6/129/1 1/3/1
f 1/3/1 3/133/1 4/131/1
f 107/134/1 9/135/1 61/136/1
f 9/135/1 1/3/1 70/137/1
f 61/136/1 9/135/1 72/138/1
f 72/138/1 9/135/1 73/139/1
f 6/129/1 2/114/1 1/3/1
f 36/122/1 63/128/1 64/123/1
f 73/139/1 9/135/1 71/140/1
f 71/140/1 9/135/1 70/137/1
f 30/121/1 64/123/1 1/3/1
f 1/3/1 64/123/1 65/141/1
f 69/142/1 70/137/1 1/3/1
f 68/143/1 69/142/1 1/3/1
f 1/3/1 65/141/1 66/1/1
f 67/2/1 68/143/1 1/3/1
f 51/4/2 36/10/2 30/5/3
f 23/7/4 8/27/4 37/8/5
f 9/10/6 22/8/6 16/11/7
f 44/14/8 15/144/8 16/145/8
f 15/144/8 17/146/8 21/147/8
f 17/146/8 18/148/8 19/149/8
f 19/149/8 20/150/8 21/147/8
f 21/147/8 16/145/8 15/144/8
f 16/145/8 22/151/8 43/12/8
f 44/14/8 16/145/8 43/12/8
f 22/151/8 24/152/8 25/153/8
f 25/153/8 26/154/8 22/151/8
f 26/154/8 27/155/8 22/151/8
f 27/155/8 28/156/8 23/157/8
f 23/157/8 50/158/8 51/159/8
f 50/158/8 52/160/8 51/159/8
f 52/160/8 53/161/8 54/162/8
f 54/162/8 55/163/8 56/164/8
f 56/164/8 51/159/8 52/160/8
f 51/159/8 43/12/8 22/151/8
f 43/12/8 45/165/8 46/13/8
f 46/13/8 47/166/8 44/14/8
f 47/166/8 48/167/8 44/14/8
f 48/167/8 49/168/8 44/14/8
f 17/146/8 19/149/8 21/147/8
f 27/155/8 23/157/8 22/151/8
f 22/151/8 23/157/8 51/159/8
f 52/160/8 54/162/8 56/164/8
f 2/9/9 7/17/10 17/15/10
f 7/17/10 6/19/11 18/18/11
f 6/19/11 5/45/12 19/20/12
f 5/21/12 4/43/13 20/22/13
f 20/22/13 4/43/13 3/24/14
f 21/25/14 3/24/14 1/5/7
f 23/7/4 28/28/15 10/26/15
f 28/28/15 27/30/16 11/29/16
f 27/30/16 26/41/17 12/31/17
f 26/32/17 25/35/18 13/33/18
f 25/35/18 24/37/19 14/36/19
f 24/37/19 22/8/6 9/10/6
f 44/38/20 49/39/21 31/28/21
f 49/39/21 48/40/22 32/30/22
f 48/40/22 47/169/23 33/41/23
f 47/42/23 46/170/24 34/43/24
f 34/43/24 46/170/24 45/44/25
f 35/24/25 45/44/25 43/6/3
f 37/8/5 42/37/26 52/17/26
f 42/37/26 41/35/27 53/19/27
f 41/35/27 40/32/28 54/45/28
f 40/34/28 39/33/29 55/46/29
f 39/33/29 38/36/30 56/48/30
f 38/36/30 36/10/2 51/4/2
f 44/38/20 29/7/20 2/9/9
f 14/171/1 9/135/1 59/172/1
f 9/135/1 107/134/1 59/172/1
f 12/173/1 13/174/1 111/175/1
f 13/174/1 14/171/1 57/176/1
f 111/175/1 13/174/1 57/176/1
f 10/49/1 11/177/1 117/50/1
f 11/177/1 12/173/1 115/178/1
f 113/179/1 12/173/1 111/175/1
f 37/180/1 8/181/1 84/182/1
f 8/181/1 10/49/1 119/51/1
f 82/183/1 8/181/1 80/184/1
f 41/185/1 42/186/1 37/180/1
f 39/187/1 40/188/1 36/122/1
f 40/188/1 41/185/1 36/122/1
f 36/122/1 38/189/1 39/187/1
f 58/190/1 89/126/1 37/180/1
f 89/126/1 36/122/1 37/180/1
f 86/191/1 58/190/1 37/180/1
f 41/185/1 37/180/1 36/122/1
f 8/181/1 82/183/1 84/182/1
f 12/173/1 113/179/1 115/178/1
f 14/171/1 59/172/1 57/176/1
f 84/182/1 86/191/1 37/180/1
f 80/184/1 8/181/1 78/192/1
f 78/192/1 8/181/1 76/193/1
f 11/177/1 115/178/1 117/50/1
f 76/193/1 8/181/1 74/194/1
f 74/194/1 8/181/1 119/51/1
f 75/52/31 77/55/32 76/53/32
f 77/55/32 79/195/33 78/56/33
f 78/56/33 79/195/33 81/57/34
f 80/58/34 81/57/34 83/59/35
f 83/59/35 85/196/36 84/61/36
f 84/61/36 85/196/36 87/62/37
f 87/62/37 88/197/38 58/64/38
f 58/64/38 88/197/38 90/65/39
f 90/65/39 91/198/40 60/67/40
f 60/67/40 91/198/40 93/68/41
f 92/69/41 93/68/41 94/70/42
f 62/71/42 94/70/42 95/72/23
f 63/74/23 95/199/23 96/75/43
f 64/76/43 96/75/43 97/77/44
f 65/78/45 97/77/44 98/79/46
f 66/80/46 98/79/46 99/81/47
f 99/81/47 100/84/48 68/83/48
f 100/84/48 101/86/50 69/85/49
f 101/86/50 102/88/51 70/87/51
f 102/88/51 103/90/12 71/89/12
f 103/90/12 104/92/52 73/91/52
f 104/92/52 105/94/53 72/93/53
f 105/94/53 106/200/54 61/95/54
f 61/95/54 106/200/54 108/96/55
f 108/96/55 109/201/56 59/98/56
f 59/98/56 109/201/56 110/99/57
f 57/100/57 110/99/57 112/101/58
f 112/101/58 114/104/59 113/103/59
f 114/104/59 116/106/60 115/105/60
f 116/106/60 118/108/62 117/107/61
f 118/108/62 120/110/63 119/109/63
f 120/110/63 75/52/31 74/54/31
f 77/111/1 75/202/1 120/203/1
f 120/203/1 118/204/1 116/205/1
f 116/205/1 114/206/1 109/112/1
f 114/206/1 112/207/1 109/112/1
f 112/207/1 110/208/1 109/112/1
f 109/112/1 108/209/1 106/210/1
f 106/210/1 105/211/1 109/112/1
f 105/211/1 104/212/1 109/112/1
f 104/212/1 103/213/1 102/214/1
f 102/214/1 101/215/1 100/113/1
f 100/113/1 99/216/1 98/217/1
f 98/217/1 97/218/1 96/219/1
f 96/219/1 95/220/1 94/221/1
f 94/221/1 93/222/1 96/219/1
f 93/222/1 91/223/1 96/219/1
f 91/223/1 90/224/1 88/225/1
f 88/225/1 87/226/1 91/223/1
f 87/226/1 85/227/1 91/223/1
f 85/227/1 83/228/1 81/229/1
f 81/229/1 79/230/1 85/227/1
f 79/230/1 77/111/1 85/227/1
f 77/111/1 120/203/1 109/112/1
f 120/203/1 116/205/1 109/112/1
f 104/212/1 102/214/1 109/112/1
f 102/214/1 100/113/1 109/112/1
f 100/113/1 98/217/1 96/219/1
f 100/113/1 96/219/1 77/111/1
f 96/219/1 91/223/1 77/111/1
f 91/223/1 85/227/1 77/111/1
